<svg width="50" height="60" viewBox="0 0 50 60" fill="none" xmlns="http://www.w3.org/2000/svg">
<path d="M50 2.28233V47.929C50 48.5343 49.7606 49.1148 49.3343 49.5429C48.9081 49.9709 48.33 50.2113 47.7273 50.2113H9.09091C7.88538 50.2113 6.72923 50.6922 5.87679 51.5483C5.02435 52.4043 4.54545 53.5654 4.54545 54.776H43.1818C43.7846 54.776 44.3627 55.0165 44.7889 55.4445C45.2151 55.8725 45.4545 56.453 45.4545 57.0583C45.4545 57.6636 45.2151 58.2442 44.7889 58.6722C44.3627 59.1002 43.7846 59.3407 43.1818 59.3407H2.27273C1.66996 59.3407 1.09189 59.1002 0.665667 58.6722C0.239448 58.2442 0 57.6636 0 57.0583V9.12933C0 6.70808 0.957789 4.386 2.66267 2.67392C4.36754 0.961837 6.67985 0 9.09091 0H47.7273C48.33 0 48.9081 0.240459 49.3343 0.66848C49.7606 1.0965 50 1.67702 50 2.28233Z" fill="black"/>
</svg>
