<svg width="23" height="23" viewBox="0 0 23 23" fill="none" xmlns="http://www.w3.org/2000/svg">
<g clip-path="url(#clip0_544_1266)">
<path d="M20.1234 6.38826C19.9542 6.47588 19.7572 6.49273 19.5756 6.43511C19.3939 6.37749 19.2426 6.25012 19.1549 6.081C18.4688 4.7257 17.4304 3.5802 16.1487 2.76486C16.0688 2.71448 15.9997 2.64887 15.9452 2.57175C15.8906 2.49464 15.8519 2.40755 15.831 2.31544C15.8101 2.22334 15.8076 2.12803 15.8236 2.03496C15.8396 1.94188 15.8737 1.85286 15.9241 1.77299C15.9745 1.69311 16.0401 1.62394 16.1172 1.56943C16.1943 1.51491 16.2814 1.47612 16.3735 1.45526C16.4656 1.4344 16.5609 1.43189 16.654 1.44787C16.7471 1.46385 16.8361 1.498 16.916 1.54838C18.4097 2.5048 19.6226 3.8408 20.4307 5.41975C20.5183 5.58894 20.5351 5.786 20.4775 5.96761C20.4199 6.14922 20.2925 6.30052 20.1234 6.38826ZM3.20673 6.46912C3.33841 6.46907 3.46754 6.43284 3.58003 6.36439C3.69252 6.29595 3.78405 6.19792 3.84462 6.081C4.53067 4.7257 5.5691 3.5802 6.85079 2.76486C7.01211 2.66312 7.1264 2.50146 7.16852 2.31544C7.21064 2.12943 7.17715 1.93431 7.0754 1.77299C6.97366 1.61167 6.812 1.49738 6.62598 1.45526C6.43997 1.41314 6.24484 1.44663 6.08353 1.54838C4.58979 2.5048 3.37688 3.8408 2.56884 5.41975C2.51209 5.52928 2.48449 5.65158 2.4887 5.77487C2.4929 5.89817 2.52877 6.0183 2.59285 6.12372C2.65693 6.22913 2.74707 6.31628 2.85458 6.37677C2.96209 6.43727 3.08337 6.46907 3.20673 6.46912ZM19.9267 15.8075C20.054 16.0258 20.1215 16.2739 20.1224 16.5267C20.1232 16.7795 20.0574 17.028 19.9316 17.2472C19.8058 17.4664 19.6243 17.6486 19.4056 17.7754C19.1869 17.9021 18.9387 17.9689 18.6859 17.9691H15.0203C14.8553 18.7815 14.4146 19.5119 13.7727 20.0365C13.1309 20.5611 12.3274 20.8477 11.4984 20.8477C10.6694 20.8477 9.86595 20.5611 9.2241 20.0365C8.58225 19.5119 8.1415 18.7815 7.97654 17.9691H4.31091C4.05829 17.9686 3.81026 17.9016 3.59181 17.7747C3.37335 17.6478 3.19219 17.4656 3.06657 17.2464C2.94095 17.0273 2.87531 16.7789 2.87626 16.5262C2.8772 16.2736 2.94471 16.0257 3.07196 15.8075C3.88146 14.4104 4.31091 12.424 4.31091 10.0629C4.31091 8.15663 5.06816 6.32846 6.41608 4.98054C7.764 3.63262 9.59217 2.87537 11.4984 2.87537C13.4047 2.87537 15.2328 3.63262 16.5807 4.98054C17.9287 6.32846 18.6859 8.15663 18.6859 10.0629C18.6859 12.4231 19.1154 14.4095 19.9267 15.8075ZM13.5307 17.9691H9.46614C9.61505 18.3891 9.8904 18.7526 10.2543 19.0096C10.6182 19.2667 11.0528 19.4047 11.4984 19.4047C11.944 19.4047 12.3786 19.2667 12.7425 19.0096C13.1064 18.7526 13.3818 18.3891 13.5307 17.9691Z" fill="white"/>
</g>
<defs>
<clipPath id="clip0_544_1266">
<rect width="23" height="23" fill="white"/>
</clipPath>
</defs>
</svg>
