<svg width="25" height="25" viewBox="0 0 25 25" fill="none" xmlns="http://www.w3.org/2000/svg">
<path d="M12.5 0C10.0277 0 7.61099 0.733112 5.55538 2.10663C3.49976 3.48015 1.89761 5.43238 0.951511 7.71645C0.00541606 10.0005 -0.242126 12.5139 0.24019 14.9386C0.722505 17.3634 1.91301 19.5907 3.66117 21.3388C5.40933 23.087 7.63661 24.2775 10.0614 24.7598C12.4861 25.2421 14.9995 24.9946 17.2835 24.0485C19.5676 23.1024 21.5199 21.5002 22.8934 19.4446C24.2669 17.389 25 14.9723 25 12.5C24.9965 9.18587 23.6784 6.00848 21.335 3.66503C18.9915 1.32158 15.8141 0.00349978 12.5 0ZM17.988 10.2957L11.2572 17.0264C11.1679 17.1158 11.0619 17.1868 10.9451 17.2352C10.8284 17.2835 10.7033 17.3084 10.5769 17.3084C10.4506 17.3084 10.3254 17.2835 10.2087 17.2352C10.092 17.1868 9.98594 17.1158 9.89664 17.0264L7.01202 14.1418C6.8316 13.9614 6.73024 13.7167 6.73024 13.4615C6.73024 13.2064 6.8316 12.9617 7.01202 12.7812C7.19245 12.6008 7.43715 12.4995 7.69231 12.4995C7.94747 12.4995 8.19218 12.6008 8.3726 12.7812L10.5769 14.9868L16.6274 8.93509C16.7167 8.84576 16.8228 8.77489 16.9395 8.72654C17.0562 8.67819 17.1814 8.65331 17.3077 8.65331C17.434 8.65331 17.5591 8.67819 17.6759 8.72654C17.7926 8.77489 17.8986 8.84576 17.988 8.93509C18.0773 9.02443 18.1482 9.13049 18.1965 9.24721C18.2449 9.36394 18.2698 9.48904 18.2698 9.61538C18.2698 9.74172 18.2449 9.86683 18.1965 9.98355C18.1482 10.1003 18.0773 10.2063 17.988 10.2957Z" fill="#28C16E"/>
</svg>
