<svg width="21" height="22" viewBox="0 0 21 22" fill="none" xmlns="http://www.w3.org/2000/svg">
<path d="M20.8169 4.36593C20.7439 4.27442 20.6526 4.2008 20.5494 4.1503C20.4463 4.0998 20.3338 4.07363 20.22 4.07365H4.53783L4.06247 1.33819C3.99736 0.962741 3.80853 0.623136 3.52891 0.378587C3.24929 0.134037 2.89661 5.51515e-05 2.53236 0H0.777691C0.571435 0 0.373626 0.0858373 0.227781 0.238629C0.0819351 0.39142 0 0.59865 0 0.81473C0 1.03081 0.0819351 1.23804 0.227781 1.39083C0.373626 1.54362 0.571435 1.62946 0.777691 1.62946H2.5275L5.01222 15.9168C5.08541 16.3405 5.26416 16.7364 5.53036 17.0645C5.16294 17.424 4.89775 17.8831 4.76419 18.3909C4.63063 18.8987 4.63392 19.4353 4.77369 19.9412C4.91346 20.4471 5.18426 20.9026 5.55605 21.2572C5.92784 21.6117 6.38609 21.8515 6.88 21.9498C7.37391 22.0482 7.88417 22.0013 8.3542 21.8144C8.82424 21.6275 9.23568 21.3079 9.5429 20.891C9.85012 20.4741 10.0411 19.9761 10.0947 19.4524C10.1483 18.9287 10.0624 18.3997 9.84655 17.9241H14.2619C14.0879 18.3056 13.9979 18.7233 13.9984 19.1462C13.9984 19.7101 14.1581 20.2615 14.4572 20.7304C14.7563 21.1993 15.1814 21.5648 15.6787 21.7806C16.1761 21.9965 16.7234 22.0529 17.2514 21.9429C17.7794 21.8329 18.2644 21.5613 18.6451 21.1625C19.0257 20.7637 19.285 20.2556 19.39 19.7025C19.495 19.1493 19.4411 18.576 19.2351 18.0549C19.0291 17.5339 18.6802 17.0885 18.2326 16.7752C17.785 16.4618 17.2587 16.2946 16.7204 16.2946H7.30738C7.12526 16.2946 6.94892 16.2276 6.80911 16.1053C6.6693 15.983 6.57488 15.8132 6.54233 15.6255L6.23417 13.8504H17.5107C18.0571 13.8503 18.5861 13.6494 19.0055 13.2825C19.425 12.9157 19.7082 12.4063 19.8059 11.8431L20.9879 5.03401C21.008 4.91632 21.003 4.79546 20.9734 4.68001C20.9439 4.56455 20.8904 4.45732 20.8169 4.36593ZM16.7204 17.9241C16.9511 17.9241 17.1766 17.9957 17.3685 18.13C17.5603 18.2643 17.7098 18.4552 17.7981 18.6785C17.8864 18.9018 17.9095 19.1475 17.8645 19.3846C17.8195 19.6216 17.7084 19.8394 17.5452 20.0103C17.3821 20.1812 17.1742 20.2976 16.9479 20.3448C16.7217 20.3919 16.4871 20.3677 16.274 20.2752C16.0608 20.1827 15.8786 20.0261 15.7504 19.8251C15.6222 19.6241 15.5538 19.3879 15.5538 19.1462C15.5538 18.822 15.6767 18.5112 15.8955 18.282C16.1143 18.0528 16.411 17.9241 16.7204 17.9241ZM7.38807 17.9241C7.61879 17.9241 7.84433 17.9957 8.03616 18.13C8.228 18.2643 8.37752 18.4552 8.46581 18.6785C8.5541 18.9018 8.5772 19.1475 8.53219 19.3846C8.48718 19.6216 8.37608 19.8394 8.21294 20.0103C8.04979 20.1812 7.84194 20.2976 7.61565 20.3448C7.38936 20.3919 7.15481 20.3677 6.94165 20.2752C6.7285 20.1827 6.54631 20.0261 6.41813 19.8251C6.28995 19.6241 6.22153 19.3879 6.22153 19.1462C6.22153 18.822 6.34443 18.5112 6.5632 18.282C6.78197 18.0528 7.07868 17.9241 7.38807 17.9241Z" fill="white"/>
</svg>
