<svg width="23" height="24" viewBox="0 0 23 24" fill="none" xmlns="http://www.w3.org/2000/svg">
<path d="M22.7994 4.76284C22.7195 4.663 22.6195 4.5827 22.5065 4.5276C22.3936 4.4725 22.2704 4.44396 22.1457 4.44398H4.97L4.44937 1.45985C4.37806 1.05026 4.17125 0.679785 3.865 0.413003C3.55874 0.146222 3.17248 6.01653e-05 2.77353 0H0.851757C0.625857 0 0.409209 0.0936407 0.249474 0.260322C0.0897384 0.427004 0 0.653073 0 0.888796C0 1.12452 0.0897384 1.35059 0.249474 1.51727C0.409209 1.68395 0.625857 1.77759 0.851757 1.77759H2.76821L5.48958 17.3637C5.56974 17.826 5.7655 18.2579 6.05706 18.6158C5.65465 19.008 5.36421 19.5089 5.21793 20.0628C5.07165 20.6167 5.07525 21.2021 5.22833 21.754C5.38141 22.306 5.678 22.8029 6.08519 23.1897C6.49239 23.5764 6.99429 23.838 7.53524 23.9453C8.07619 24.0526 8.63504 24.0014 9.14984 23.7975C9.66464 23.5937 10.1153 23.245 10.4517 22.7901C10.7882 22.3353 10.9974 21.7922 11.0561 21.2208C11.1148 20.6495 11.0207 20.0724 10.7843 19.5535H15.6202C15.4296 19.9698 15.331 20.4254 15.3316 20.8867C15.3316 21.502 15.5065 22.1034 15.834 22.615C16.1616 23.1265 16.6272 23.5253 17.1719 23.7607C17.7167 23.9962 18.3161 24.0578 18.8944 23.9377C19.4727 23.8177 20.0039 23.5214 20.4208 23.0864C20.8377 22.6513 21.1216 22.097 21.2367 21.4936C21.3517 20.8902 21.2926 20.2647 21.067 19.6963C20.8414 19.1278 20.4593 18.642 19.969 18.3002C19.4788 17.9584 18.9024 17.7759 18.3128 17.7759H8.00332C7.80385 17.7759 7.61072 17.7028 7.45759 17.5694C7.30447 17.436 7.20106 17.2508 7.16541 17.046L6.8279 15.1095H19.1784C19.7768 15.1094 20.3562 14.8902 20.8156 14.49C21.2749 14.0899 21.5852 13.5341 21.6921 12.9198L22.9868 5.49165C23.0087 5.36326 23.0033 5.23142 22.9709 5.10546C22.9385 4.97951 22.88 4.86253 22.7994 4.76284ZM18.3128 19.5535C18.5655 19.5535 18.8125 19.6317 19.0226 19.7782C19.2327 19.9247 19.3965 20.1329 19.4932 20.3765C19.5899 20.6201 19.6152 20.8882 19.5659 21.1468C19.5166 21.4054 19.3949 21.643 19.2162 21.8294C19.0375 22.0159 18.8099 22.1428 18.562 22.1943C18.3142 22.2457 18.0573 22.2193 17.8239 22.1184C17.5904 22.0175 17.3909 21.8466 17.2505 21.6274C17.1101 21.4082 17.0351 21.1504 17.0351 20.8867C17.0351 20.5331 17.1698 20.194 17.4094 19.944C17.649 19.694 17.9739 19.5535 18.3128 19.5535ZM8.09169 19.5535C8.34439 19.5535 8.5914 19.6317 8.80151 19.7782C9.01162 19.9247 9.17537 20.1329 9.27208 20.3765C9.36878 20.6201 9.39408 20.8882 9.34478 21.1468C9.29548 21.4054 9.1738 21.643 8.99512 21.8294C8.81644 22.0159 8.58879 22.1428 8.34095 22.1943C8.09311 22.2457 7.83622 22.2193 7.60276 22.1184C7.36931 22.0175 7.16977 21.8466 7.02938 21.6274C6.88899 21.4082 6.81406 21.1504 6.81406 20.8867C6.81406 20.5331 6.94867 20.194 7.18827 19.944C7.42787 19.694 7.75284 19.5535 8.09169 19.5535Z" fill="#0083CB"/>
</svg>
