<svg width="24" height="21" viewBox="0 0 24 21" fill="none" xmlns="http://www.w3.org/2000/svg">
<path d="M6.62954 1.23466L0.265909 7.59829C0.181514 7.68278 0.114592 7.78307 0.0689666 7.89343C0.0233411 8.00379 -9.41851e-05 8.12206 -2.75237e-07 8.24148L2.01614e-07 19.1506C2.22692e-07 19.6328 0.191558 20.0952 0.532533 20.4362C0.873509 20.7772 1.33597 20.9687 1.81818 20.9687L21.8182 20.9687C22.3004 20.9687 22.7629 20.7772 23.1038 20.4362C23.4448 20.0952 23.6364 19.6328 23.6364 19.1506L23.6364 2.78693C23.6364 2.30472 23.4448 1.84226 23.1038 1.50128C22.7629 1.16031 22.3004 0.968749 21.8182 0.968749L7.27273 0.96875C7.15331 0.968654 7.03504 0.99209 6.92468 1.03772C6.81432 1.08334 6.71403 1.15026 6.62954 1.23466ZM7.27273 8.24148L2.27273 8.24148L7.27273 3.24148L7.27273 8.24148Z" fill="white"/>
</svg>
