<svg width="25" height="25" viewBox="0 0 25 25" fill="none" xmlns="http://www.w3.org/2000/svg">
<path d="M12.5 0C10.0277 0 7.61099 0.733112 5.55538 2.10663C3.49976 3.48015 1.89761 5.43238 0.951511 7.71645C0.00541606 10.0005 -0.242126 12.5139 0.24019 14.9386C0.722505 17.3634 1.91301 19.5907 3.66117 21.3388C5.40933 23.087 7.63661 24.2775 10.0614 24.7598C12.4861 25.2421 14.9995 24.9946 17.2835 24.0485C19.5676 23.1024 21.5199 21.5002 22.8934 19.4446C24.2669 17.389 25 14.9723 25 12.5C24.9965 9.18587 23.6784 6.00848 21.335 3.66503C18.9915 1.32158 15.8141 0.00349978 12.5 0ZM17.0264 15.6659C17.1158 15.7552 17.1866 15.8613 17.235 15.978C17.2833 16.0947 17.3082 16.2198 17.3082 16.3461C17.3082 16.4725 17.2833 16.5976 17.235 16.7143C17.1866 16.831 17.1158 16.9371 17.0264 17.0264C16.9371 17.1158 16.831 17.1866 16.7143 17.235C16.5976 17.2833 16.4725 17.3082 16.3462 17.3082C16.2198 17.3082 16.0947 17.2833 15.978 17.235C15.8613 17.1866 15.7552 17.1158 15.6659 17.0264L12.5 13.8594L9.33414 17.0264C9.2448 17.1158 9.13874 17.1866 9.02202 17.235C8.9053 17.2833 8.78019 17.3082 8.65385 17.3082C8.52751 17.3082 8.4024 17.2833 8.28568 17.235C8.16896 17.1866 8.0629 17.1158 7.97356 17.0264C7.88422 16.9371 7.81336 16.831 7.76501 16.7143C7.71666 16.5976 7.69178 16.4725 7.69178 16.3461C7.69178 16.2198 7.71666 16.0947 7.76501 15.978C7.81336 15.8613 7.88422 15.7552 7.97356 15.6659L11.1406 12.5L7.97356 9.33413C7.79314 9.15371 7.69178 8.909 7.69178 8.65384C7.69178 8.39869 7.79314 8.15398 7.97356 7.97356C8.15399 7.79313 8.39869 7.69177 8.65385 7.69177C8.90901 7.69177 9.15372 7.79313 9.33414 7.97356L12.5 11.1406L15.6659 7.97356C15.7552 7.88422 15.8613 7.81335 15.978 7.765C16.0947 7.71666 16.2198 7.69177 16.3462 7.69177C16.4725 7.69177 16.5976 7.71666 16.7143 7.765C16.831 7.81335 16.9371 7.88422 17.0264 7.97356C17.1158 8.06289 17.1866 8.16895 17.235 8.28568C17.2833 8.4024 17.3082 8.5275 17.3082 8.65384C17.3082 8.78019 17.2833 8.90529 17.235 9.02201C17.1866 9.13874 17.1158 9.2448 17.0264 9.33413L13.8594 12.5L17.0264 15.6659Z" fill="#D44242"/>
</svg>
