<svg width="16" height="17" viewBox="0 0 16 17" fill="none" xmlns="http://www.w3.org/2000/svg">
<path d="M14.6667 1.30769H12.6667V0.653846C12.6667 0.480435 12.5964 0.314127 12.4714 0.191507C12.3464 0.0688871 12.1768 0 12 0C11.8232 0 11.6536 0.0688871 11.5286 0.191507C11.4036 0.314127 11.3333 0.480435 11.3333 0.653846V1.30769H4.66667V0.653846C4.66667 0.480435 4.59643 0.314127 4.4714 0.191507C4.34638 0.0688871 4.17681 0 4 0C3.82319 0 3.65362 0.0688871 3.5286 0.191507C3.40357 0.314127 3.33333 0.480435 3.33333 0.653846V1.30769H1.33333C0.979711 1.30769 0.640573 1.44547 0.390524 1.69071C0.140476 1.93595 0 2.26856 0 2.61538V15.6923C0 16.0391 0.140476 16.3717 0.390524 16.617C0.640573 16.8622 0.979711 17 1.33333 17H14.6667C15.0203 17 15.3594 16.8622 15.6095 16.617C15.8595 16.3717 16 16.0391 16 15.6923V2.61538C16 2.26856 15.8595 1.93595 15.6095 1.69071C15.3594 1.44547 15.0203 1.30769 14.6667 1.30769ZM14.6667 5.23077H1.33333V2.61538H3.33333V3.26923C3.33333 3.44264 3.40357 3.60895 3.5286 3.73157C3.65362 3.85419 3.82319 3.92308 4 3.92308C4.17681 3.92308 4.34638 3.85419 4.4714 3.73157C4.59643 3.60895 4.66667 3.44264 4.66667 3.26923V2.61538H11.3333V3.26923C11.3333 3.44264 11.4036 3.60895 11.5286 3.73157C11.6536 3.85419 11.8232 3.92308 12 3.92308C12.1768 3.92308 12.3464 3.85419 12.4714 3.73157C12.5964 3.60895 12.6667 3.44264 12.6667 3.26923V2.61538H14.6667V5.23077Z" fill="#0083CB"/>
</svg>
