<svg width="20" height="22" viewBox="0 0 20 22" fill="none" xmlns="http://www.w3.org/2000/svg">
<path d="M20 3.07692V1.53846C20 1.13044 19.8379 0.739122 19.5494 0.450605C19.2609 0.162087 18.8696 0 18.4615 0H1.53846C1.13044 0 0.739122 0.162087 0.450605 0.450605C0.162087 0.739122 0 1.13044 0 1.53846V3.07692C0 3.48495 0.162087 3.87626 0.450605 4.16478C0.739122 4.4533 1.13044 4.61538 1.53846 4.61538V13.8462H0.769231C0.565218 13.8462 0.369561 13.9272 0.225302 14.0715C0.0810437 14.2157 0 14.4114 0 14.6154C0 14.8194 0.0810437 15.0151 0.225302 15.1593C0.369561 15.3036 0.565218 15.3846 0.769231 15.3846H9.23077V17.0558C8.71753 17.2372 8.28496 17.5943 8.00951 18.0638C7.73407 18.5334 7.63349 19.0852 7.72554 19.6217C7.8176 20.1583 8.09636 20.645 8.51257 20.9958C8.92878 21.3467 9.45563 21.5392 10 21.5392C10.5444 21.5392 11.0712 21.3467 11.4874 20.9958C11.9036 20.645 12.1824 20.1583 12.2745 19.6217C12.3665 19.0852 12.2659 18.5334 11.9905 18.0638C11.715 17.5943 11.2825 17.2372 10.7692 17.0558V15.3846H19.2308C19.4348 15.3846 19.6304 15.3036 19.7747 15.1593C19.919 15.0151 20 14.8194 20 14.6154C20 14.4114 19.919 14.2157 19.7747 14.0715C19.6304 13.9272 19.4348 13.8462 19.2308 13.8462H18.4615V4.61538C18.8696 4.61538 19.2609 4.4533 19.5494 4.16478C19.8379 3.87626 20 3.48495 20 3.07692ZM7.69231 10.7692C7.69231 10.9732 7.61126 11.1689 7.46701 11.3132C7.32275 11.4574 7.12709 11.5385 6.92308 11.5385C6.71906 11.5385 6.52341 11.4574 6.37915 11.3132C6.23489 11.1689 6.15385 10.9732 6.15385 10.7692V9.23077C6.15385 9.02676 6.23489 8.8311 6.37915 8.68684C6.52341 8.54258 6.71906 8.46154 6.92308 8.46154C7.12709 8.46154 7.32275 8.54258 7.46701 8.68684C7.61126 8.8311 7.69231 9.02676 7.69231 9.23077V10.7692ZM10 20C9.84786 20 9.69914 19.9549 9.57264 19.8704C9.44614 19.7858 9.34754 19.6657 9.28932 19.5251C9.2311 19.3846 9.21587 19.2299 9.24555 19.0807C9.27523 18.9315 9.34849 18.7944 9.45607 18.6868C9.56365 18.5793 9.70071 18.506 9.84993 18.4763C9.99915 18.4466 10.1538 18.4619 10.2944 18.5201C10.4349 18.5783 10.5551 18.6769 10.6396 18.8034C10.7241 18.9299 10.7692 19.0786 10.7692 19.2308C10.7692 19.4348 10.6882 19.6304 10.5439 19.7747C10.3997 19.919 10.204 20 10 20ZM10.7692 10.7692C10.7692 10.9732 10.6882 11.1689 10.5439 11.3132C10.3997 11.4574 10.204 11.5385 10 11.5385C9.79599 11.5385 9.60033 11.4574 9.45607 11.3132C9.31181 11.1689 9.23077 10.9732 9.23077 10.7692V8.46154C9.23077 8.25753 9.31181 8.06187 9.45607 7.91761C9.60033 7.77335 9.79599 7.69231 10 7.69231C10.204 7.69231 10.3997 7.77335 10.5439 7.91761C10.6882 8.06187 10.7692 8.25753 10.7692 8.46154V10.7692ZM13.8462 10.7692C13.8462 10.9732 13.7651 11.1689 13.6209 11.3132C13.4766 11.4574 13.2809 11.5385 13.0769 11.5385C12.8729 11.5385 12.6773 11.4574 12.533 11.3132C12.3887 11.1689 12.3077 10.9732 12.3077 10.7692V7.69231C12.3077 7.48829 12.3887 7.29264 12.533 7.14838C12.6773 7.00412 12.8729 6.92308 13.0769 6.92308C13.2809 6.92308 13.4766 7.00412 13.6209 7.14838C13.7651 7.29264 13.8462 7.48829 13.8462 7.69231V10.7692ZM1.53846 3.07692V1.53846H18.4615V3.07692H1.53846Z" fill="white"/>
</svg>
