<svg width="24" height="25" viewBox="0 0 24 25" fill="none" xmlns="http://www.w3.org/2000/svg">
<path d="M6.2925 11.2075C6.15249 11.0676 6.05712 10.8894 6.01847 10.6953C5.97982 10.5012 5.99963 10.3 6.07538 10.1172C6.15113 9.93439 6.27942 9.77815 6.44402 9.66828C6.60861 9.55841 6.8021 9.49984 7 9.5H11V1.5C11 1.23478 11.1054 0.98043 11.2929 0.792893C11.4804 0.605357 11.7348 0.5 12 0.5C12.2652 0.5 12.5196 0.605357 12.7071 0.792893C12.8946 0.98043 13 1.23478 13 1.5V9.5H17C17.1979 9.49984 17.3914 9.55841 17.556 9.66828C17.7206 9.77815 17.8489 9.93439 17.9246 10.1172C18.0004 10.3 18.0202 10.5012 17.9815 10.6953C17.9429 10.8894 17.8475 11.0676 17.7075 11.2075L12.7075 16.2075C12.6146 16.3005 12.5043 16.3742 12.3829 16.4246C12.2615 16.4749 12.1314 16.5008 12 16.5008C11.8686 16.5008 11.7385 16.4749 11.6171 16.4246C11.4957 16.3742 11.3854 16.3005 11.2925 16.2075L6.2925 11.2075ZM23 14.5C22.7348 14.5 22.4804 14.6054 22.2929 14.7929C22.1054 14.9804 22 15.2348 22 15.5V22.5H2V15.5C2 15.2348 1.89464 14.9804 1.70711 14.7929C1.51957 14.6054 1.26522 14.5 1 14.5C0.734784 14.5 0.48043 14.6054 0.292893 14.7929C0.105357 14.9804 0 15.2348 0 15.5V22.5C0 23.0304 0.210714 23.5391 0.585786 23.9142C0.960859 24.2893 1.46957 24.5 2 24.5H22C22.5304 24.5 23.0391 24.2893 23.4142 23.9142C23.7893 23.5391 24 23.0304 24 22.5V15.5C24 15.2348 23.8946 14.9804 23.7071 14.7929C23.5196 14.6054 23.2652 14.5 23 14.5Z" fill="white"/>
</svg>
