<svg width="13" height="15" viewBox="0 0 13 15" fill="none" xmlns="http://www.w3.org/2000/svg">
<path d="M6.17647 0C4.53894 0.00177238 2.96901 0.623201 1.8111 1.72795C0.653187 2.8327 0.00185767 4.33056 0 5.89292C0 10.9354 5.61497 14.7437 5.85431 14.9031C5.94872 14.9662 6.0612 15 6.17647 15C6.29174 15 6.40422 14.9662 6.49863 14.9031C6.73797 14.7437 12.3529 10.9354 12.3529 5.89292C12.3511 4.33056 11.6998 2.8327 10.5418 1.72795C9.38393 0.623201 7.814 0.00177238 6.17647 0ZM6.17647 3.75004C6.62069 3.75004 7.05492 3.87572 7.42428 4.11118C7.79363 4.34664 8.0815 4.68131 8.25149 5.07287C8.42149 5.46443 8.46597 5.89529 8.3793 6.31097C8.29264 6.72665 8.07873 7.10847 7.76462 7.40816C7.45052 7.70785 7.05032 7.91194 6.61464 7.99462C6.17896 8.0773 5.72737 8.03487 5.31697 7.87268C4.90657 7.71049 4.55579 7.43583 4.309 7.08344C4.06221 6.73104 3.93048 6.31674 3.93048 5.89292C3.93048 5.32459 4.16711 4.77954 4.58832 4.37767C5.00952 3.9758 5.5808 3.75004 6.17647 3.75004Z" fill="white"/>
</svg>
