<svg width="14" height="17" viewBox="0 0 14 17" fill="none" xmlns="http://www.w3.org/2000/svg">
<path d="M7 0C5.14413 0.0020087 3.36488 0.706294 2.05258 1.95835C0.740279 3.2104 0.00210536 4.90797 0 6.67864C0 12.3934 6.36364 16.7095 6.63489 16.8901C6.74188 16.9616 6.86936 17 7 17C7.13064 17 7.25811 16.9616 7.36511 16.8901C7.63636 16.7095 14 12.3934 14 6.67864C13.9979 4.90797 13.2597 3.2104 11.9474 1.95835C10.6351 0.706294 8.85587 0.0020087 7 0ZM7 4.25004C7.50344 4.25004 7.99558 4.39248 8.41418 4.65934C8.83278 4.92619 9.15903 5.30549 9.35169 5.74925C9.54435 6.19302 9.59476 6.68133 9.49654 7.15243C9.39833 7.62354 9.1559 8.05627 8.79991 8.39592C8.44392 8.73556 7.99036 8.96686 7.49659 9.06057C7.00282 9.15428 6.49102 9.10618 6.0259 8.92237C5.56078 8.73855 5.16323 8.42727 4.88353 8.02789C4.60383 7.62851 4.45455 7.15897 4.45455 6.67864C4.45455 6.03453 4.72273 5.41681 5.20009 4.96136C5.67746 4.50591 6.3249 4.25004 7 4.25004Z" fill="#333333"/>
</svg>
