<svg width="50" height="63" viewBox="0 0 50 63" fill="none" xmlns="http://www.w3.org/2000/svg">
<path d="M49.1875 16.6565L35.3125 1.03179C35.0203 0.708073 34.6636 0.449084 34.2654 0.271481C33.8671 0.0938778 33.4361 0.00159311 33 0.000562415H8C6.96172 -0.011822 5.93116 0.180434 4.96719 0.566353C4.00321 0.952272 3.1247 1.52429 2.38182 2.24975C1.63893 2.97521 1.04623 3.8399 0.637557 4.79443C0.228882 5.74897 0.0122387 6.77466 0 7.81292V54.6871C0.0122387 55.7253 0.228882 56.751 0.637557 57.7056C1.04623 58.6601 1.63893 59.5248 2.38182 60.2502C3.1247 60.9757 4.00321 61.5477 4.96719 61.9336C5.93116 62.3196 6.96172 62.5118 8 62.4994H42C43.0383 62.5118 44.0688 62.3196 45.0328 61.9336C45.9968 61.5477 46.8753 60.9757 47.6182 60.2502C48.3611 59.5248 48.9538 58.6601 49.3624 57.7056C49.7711 56.751 49.9878 55.7253 50 54.6871V18.7502C49.998 17.9758 49.7084 17.2296 49.1875 16.6565ZM31.25 40.6248H28.125V43.7498C28.125 44.5786 27.7958 45.3734 27.2097 45.9594C26.6237 46.5455 25.8288 46.8747 25 46.8747C24.1712 46.8747 23.3763 46.5455 22.7903 45.9594C22.2042 45.3734 21.875 44.5786 21.875 43.7498V40.6248H18.75C17.9212 40.6248 17.1263 40.2956 16.5403 39.7096C15.9542 39.1235 15.625 38.3287 15.625 37.4999C15.625 36.6711 15.9542 35.8763 16.5403 35.2902C17.1263 34.7042 17.9212 34.3749 18.75 34.3749H21.875V31.25C21.875 30.4212 22.2042 29.6264 22.7903 29.0403C23.3763 28.4543 24.1712 28.1251 25 28.1251C25.8288 28.1251 26.6237 28.4543 27.2097 29.0403C27.7958 29.6264 28.125 30.4212 28.125 31.25V34.3749H31.25C32.0788 34.3749 32.8737 34.7042 33.4597 35.2902C34.0458 35.8763 34.375 36.6711 34.375 37.4999C34.375 38.3287 34.0458 39.1235 33.4597 39.7096C32.8737 40.2956 32.0788 40.6248 31.25 40.6248ZM33.4688 18.7502C32.8245 18.6868 32.231 18.3728 31.816 17.876C31.401 17.3792 31.1977 16.7393 31.25 16.094V6.25045L42.9375 18.7502H33.4688Z" fill="black"/>
</svg>
