<svg width="32" height="32" viewBox="0 0 32 32" fill="none" xmlns="http://www.w3.org/2000/svg">
<g clip-path="url(#clip0_792_1180)">
<path d="M27.5004 21.136L16.0004 27.8423L4.50039 21.136C4.2727 21.0227 4.01036 21.0003 3.76678 21.0735C3.52319 21.1468 3.31666 21.3101 3.18923 21.5302C3.06181 21.7503 3.02305 22.0108 3.08086 22.2585C3.13866 22.5062 3.28869 22.7225 3.50039 22.8635L15.5004 29.8635C15.6533 29.9527 15.8271 29.9997 16.0041 29.9997C16.1812 29.9997 16.355 29.9527 16.5079 29.8635L28.5079 22.8635C28.6232 22.7983 28.7243 22.7109 28.8055 22.6062C28.8867 22.5016 28.9463 22.3819 28.9808 22.2541C29.0154 22.1262 29.0242 21.9928 29.0068 21.8615C28.9893 21.7303 28.946 21.6038 28.8793 21.4894C28.8126 21.375 28.7238 21.275 28.6181 21.1952C28.5125 21.1154 28.392 21.0573 28.2637 21.0245C28.1354 20.9916 28.0019 20.9845 27.8709 21.0037C27.7398 21.0228 27.6139 21.0678 27.5004 21.136Z" fill="#0083CB"/>
<path d="M27.5004 15.136L16.0004 21.8423L4.50039 15.136C4.2727 15.0227 4.01036 15.0003 3.76678 15.0735C3.52319 15.1468 3.31666 15.3101 3.18923 15.5302C3.06181 15.7503 3.02305 16.0108 3.08086 16.2585C3.13866 16.5062 3.28869 16.7225 3.50039 16.8635L15.5004 23.8635C15.6533 23.9527 15.8271 23.9997 16.0041 23.9997C16.1812 23.9997 16.355 23.9527 16.5079 23.8635L28.5079 16.8635C28.6232 16.7983 28.7243 16.7109 28.8055 16.6062C28.8867 16.5016 28.9463 16.3819 28.9808 16.2541C29.0154 16.1262 29.0242 15.9928 29.0068 15.8615C28.9893 15.7303 28.946 15.6038 28.8793 15.4894C28.8126 15.375 28.7238 15.275 28.6181 15.1952C28.5125 15.1154 28.392 15.0573 28.2637 15.0245C28.1354 14.9916 28.0019 14.9845 27.8709 15.0037C27.7398 15.0228 27.6139 15.0678 27.5004 15.136Z" fill="#0083CB"/>
<path d="M3.49999 10.8637L15.5 17.8637C15.6529 17.9528 15.8267 17.9998 16.0037 17.9998C16.1807 17.9998 16.3546 17.9528 16.5075 17.8637L28.5075 10.8637C28.6584 10.7756 28.7837 10.6495 28.8707 10.4979C28.9578 10.3464 29.0036 10.1747 29.0036 9.9999C29.0036 9.82513 28.9578 9.65342 28.8707 9.50187C28.7837 9.35031 28.6584 9.22422 28.5075 9.13615L16.5075 2.13615C16.3546 2.04698 16.1807 2 16.0037 2C15.8267 2 15.6529 2.04698 15.5 2.13615L3.49999 9.13615C3.34903 9.22422 3.22379 9.35031 3.13675 9.50187C3.04971 9.65342 3.00391 9.82513 3.00391 9.9999C3.00391 10.1747 3.04971 10.3464 3.13675 10.4979C3.22379 10.6495 3.34903 10.7756 3.49999 10.8637Z" fill="#0083CB"/>
</g>
<defs>
<clipPath id="clip0_792_1180">
<rect width="32" height="32" fill="white"/>
</clipPath>
</defs>
</svg>
