<svg width="30" height="24" viewBox="0 0 30 24" fill="none" xmlns="http://www.w3.org/2000/svg">
<path d="M13.5 18C13.5 18.425 13.644 18.7815 13.932 19.0695C14.22 19.3575 14.576 19.501 15 19.5C15.425 19.5 15.7815 19.3625 16.0695 19.0875C16.3575 18.8125 16.501 18.4625 16.5 18.0375V13.5H19.2C19.55 13.5 19.7815 13.3435 19.8945 13.0305C20.0075 12.7175 19.951 12.449 19.725 12.225L15.525 8.025C15.375 7.875 15.2 7.8 15 7.8C14.8 7.8 14.625 7.875 14.475 8.025L10.275 12.225C10.05 12.45 9.9935 12.7185 10.1055 13.0305C10.2175 13.3425 10.449 13.499 10.8 13.5H13.5V18ZM3 24C2.175 24 1.4685 23.706 0.880502 23.118C0.292502 22.53 -0.000997453 21.824 2.54669e-06 21V3C2.54669e-06 2.175 0.294003 1.4685 0.882002 0.880502C1.47 0.292502 2.176 -0.000997453 3 2.54669e-06H10.7625C11.1625 2.54669e-06 11.544 0.0750027 11.907 0.225003C12.27 0.375003 12.5885 0.587502 12.8625 0.862502L15 3H27C27.825 3 28.5315 3.294 29.1195 3.882C29.7075 4.47 30.001 5.176 30 6V21C30 21.825 29.706 22.5315 29.118 23.1195C28.53 23.7075 27.824 24.001 27 24H3Z" fill="black"/>
</svg>
