<svg width="213" height="213" viewBox="0 0 213 213" fill="none" xmlns="http://www.w3.org/2000/svg">
<g clip-path="url(#clip0_123_74)">
<mask id="mask0_123_74" style="mask-type:luminance" maskUnits="userSpaceOnUse" x="0" y="0" width="213" height="213">
<path d="M212.132 106.066L106.066 0L-5.84126e-06 106.066L106.066 212.132L212.132 106.066Z" fill="white"/>
</mask>
<g mask="url(#mask0_123_74)">
<path d="M149.155 62.9767C140.633 54.4543 129.775 48.6506 117.954 46.2995C106.134 43.9481 93.8811 45.1549 82.7463 49.7671C71.6112 54.3795 62.0943 62.1898 55.3983 72.2111C48.7026 82.232 45.1285 94.0137 45.1285 106.066C45.1284 118.118 48.7025 129.9 55.3983 139.921C62.0943 149.942 71.6114 157.753 82.7464 162.365C93.881 166.977 106.134 168.184 117.954 165.833C129.775 163.482 140.633 157.678 149.155 149.155C160.565 137.717 166.972 122.222 166.972 106.066C166.972 89.9106 160.565 74.4146 149.155 62.9767ZM119.324 125.953L106.066 112.695L92.8078 125.953C91.9287 126.832 90.7361 127.326 89.4932 127.326C88.2502 127.326 87.0576 126.832 86.1786 125.953C85.2996 125.074 84.8057 123.882 84.8057 122.639C84.8057 121.396 85.2996 120.203 86.1786 119.324L99.4369 106.066L86.1786 92.8078C85.2996 91.9288 84.8057 90.7362 84.8057 89.4932C84.8057 88.2503 85.2996 87.0577 86.1786 86.1787C87.0576 85.2996 88.2502 84.8058 89.4932 84.8058C90.7362 84.8058 91.9287 85.2996 92.8078 86.1787L106.066 99.4369L119.324 86.1787C120.203 85.2996 121.396 84.8058 122.639 84.8058C123.882 84.8058 125.074 85.2996 125.953 86.1787C126.832 87.0577 127.326 88.2503 127.326 89.4932C127.326 90.7362 126.832 91.9288 125.953 92.8078L112.695 106.066L125.953 119.324C126.832 120.203 127.326 121.396 127.326 122.639C127.326 123.882 126.832 125.074 125.953 125.953C125.074 126.832 123.882 127.326 122.639 127.326C121.396 127.326 120.203 126.832 119.324 125.953Z" fill="#C47272"/>
</g>
</g>
<defs>
<clipPath id="clip0_123_74">
<rect width="150" height="150" fill="white" transform="translate(106.066) rotate(45)"/>
</clipPath>
</defs>
</svg>
