<svg width="147" height="84" viewBox="0 0 147 84" fill="none" xmlns="http://www.w3.org/2000/svg">
<path d="M16.9775 62.91C20.505 60.245 24.4475 58.1431 28.805 56.6042C33.1625 55.0653 37.7275 54.2973 42.5 54.3C47.2725 54.3 51.8375 55.0694 56.195 56.6083C60.5525 58.1472 64.495 60.2477 68.0225 62.91C70.4433 60.1083 72.3288 56.9308 73.6789 53.3775C75.0291 49.8242 75.7028 46.0317 75.7 42C75.7 32.9117 72.4671 25.1722 66.0014 18.7817C59.5357 12.3912 51.7019 9.19727 42.5 9.2C33.3008 9.2 25.467 12.3939 18.9985 18.7817C12.5301 25.1695 9.29723 32.9089 9.3 42C9.3 46.0317 9.97507 49.8242 11.3252 53.3775C12.6753 56.9308 14.5594 60.1083 16.9775 62.91ZM42.5 46.1C38.4192 46.1 34.9774 44.7169 32.1748 41.9508C29.3722 39.1847 27.9722 35.7844 27.975 31.75C27.975 27.7183 29.3749 24.3181 32.1748 21.5492C34.9747 18.7803 38.4164 17.3973 42.5 17.4C46.5808 17.4 50.0226 18.7831 52.8252 21.5492C55.6278 24.3153 57.0278 27.7156 57.025 31.75C57.025 35.7817 55.6251 39.1819 52.8252 41.9508C50.0253 44.7197 46.5836 46.1027 42.5 46.1ZM42.5 83C36.7592 83 31.3642 81.9231 26.315 79.7692C21.2658 77.6153 16.8737 74.6948 13.1388 71.0075C9.40375 67.3175 6.44757 62.9783 4.2702 57.99C2.09283 53.0017 1.00277 47.6717 1 42C1 36.3283 2.09007 30.9983 4.2702 26.01C6.45033 21.0217 9.40652 16.6825 13.1388 12.9925C16.8737 9.3025 21.2658 6.38193 26.315 4.2308C31.3642 2.07967 36.7592 1.00273 42.5 1C48.2408 1 53.6358 2.07693 58.685 4.2308C63.7342 6.38467 68.1262 9.30523 71.8612 12.9925C75.5962 16.6825 78.5538 21.0217 80.7339 26.01C82.9141 30.9983 84.0028 36.3283 84 42C84 47.6717 82.9099 53.0017 80.7298 57.99C78.5497 62.9783 75.5935 67.3175 71.8612 71.0075C68.1262 74.6975 63.7342 77.6194 58.685 79.7733C53.6358 81.9272 48.2408 83.0027 42.5 83Z" fill="#0083CB" stroke="#0083CB" stroke-width="1.99617"/>
<path d="M124.599 48.8L124.599 42.7988L145 42.7989L145.599 42.7989L145.599 42.2L145.599 37.8L145.599 37.2011L145 37.2011L124.599 37.2011L124.599 31.2L124.599 29.9982L123.639 30.7219L111.973 39.5219L111.339 40L111.973 40.4781L123.639 49.2781L124.599 50.0018L124.599 48.8ZM141.598 33.9989L142.429 33.9989L142.166 33.2108C139.108 24.0298 130.028 17.4011 119.333 17.4011C106.149 17.4011 95.4012 27.4859 95.4012 40C95.4012 52.514 106.149 62.5988 119.333 62.5988C130.028 62.5989 139.108 55.9702 142.166 46.7892L142.429 46.0011L141.598 46.0011L136.642 46.0011L136.247 46.0011L136.092 46.3642C134.526 50.0194 131.657 53.0553 127.967 54.944C124.277 56.8329 120.002 57.4537 115.876 56.6968C111.75 55.9399 108.04 53.8542 105.376 50.8057C102.714 47.7581 101.263 43.9379 101.266 40.0009C101.271 36.0677 102.726 32.2535 105.389 29.2113C108.052 26.1683 111.76 24.0867 115.882 23.3306C120.003 22.5744 124.274 23.1926 127.962 25.0762C131.65 26.9596 134.521 29.9882 136.092 33.6369L136.248 33.9989L136.642 33.9989L141.598 33.9989Z" fill="#0083CB" stroke="#0083CB" stroke-width="1.1977"/>
</svg>
