<svg width="41" height="40" viewBox="0 0 41 40" fill="none" xmlns="http://www.w3.org/2000/svg">
<g clip-path="url(#clip0_125_286)">
<path d="M32.7635 5.3803H29.0135V4.14388C29.0135 3.81597 28.8819 3.50148 28.6474 3.26961C28.413 3.03774 28.0951 2.90747 27.7635 2.90747C27.432 2.90747 27.1141 3.03774 26.8797 3.26961C26.6452 3.50148 26.5135 3.81597 26.5135 4.14388V5.3803H14.0135V4.14388C14.0135 3.81597 13.8819 3.50148 13.6474 3.26961C13.413 3.03774 13.0951 2.90747 12.7635 2.90747C12.432 2.90747 12.1141 3.03774 11.8797 3.26961C11.6452 3.50148 11.5135 3.81597 11.5135 4.14388V5.3803H7.76355C7.10051 5.3803 6.46462 5.64083 5.99578 6.10457C5.52694 6.56831 5.26355 7.19729 5.26355 7.85312V32.5814C5.26355 33.2372 5.52694 33.8662 5.99578 34.3299C6.46462 34.7937 7.10051 35.0542 7.76355 35.0542H32.7635C33.4266 35.0542 34.0625 34.7937 34.5313 34.3299C35.0002 33.8662 35.2635 33.2372 35.2635 32.5814V7.85312C35.2635 7.19729 35.0002 6.56831 34.5313 6.10457C34.0625 5.64083 33.4266 5.3803 32.7635 5.3803ZM32.7635 12.7988H7.76355V7.85312H11.5135V9.08953C11.5135 9.41745 11.6452 9.73194 11.8797 9.96381C12.1141 10.1957 12.432 10.3259 12.7635 10.3259C13.0951 10.3259 13.413 10.1957 13.6474 9.96381C13.8819 9.73194 14.0135 9.41745 14.0135 9.08953V7.85312H26.5135V9.08953C26.5135 9.41745 26.6452 9.73194 26.8797 9.96381C27.1141 10.1957 27.432 10.3259 27.7635 10.3259C28.0951 10.3259 28.413 10.1957 28.6474 9.96381C28.8819 9.73194 29.0135 9.41745 29.0135 9.08953V7.85312H32.7635V12.7988Z" fill="#0083CB"/>
</g>
<defs>
<clipPath id="clip0_125_286">
<rect width="40" height="39.5652" fill="white" transform="translate(0.263184 0.434814)"/>
</clipPath>
</defs>
</svg>
