<svg width="36" height="26" viewBox="0 0 36 26" fill="none" xmlns="http://www.w3.org/2000/svg">
<path d="M33.4984 9.325C34.0631 9.2101 34.5708 8.90364 34.9356 8.45748C35.3003 8.01131 35.4997 7.45284 35.5 6.87656V3C35.5 2.33696 35.2366 1.70107 34.7678 1.23223C34.2989 0.763392 33.663 0.5 33 0.5H3C2.33696 0.5 1.70108 0.763392 1.23224 1.23223C0.763397 1.70107 0.500005 2.33696 0.500005 3V6.87656C0.500321 7.45284 0.699716 8.01131 1.06445 8.45748C1.42919 8.90364 1.93686 9.2101 2.50157 9.325C3.34595 9.50011 4.10418 9.96088 4.64854 10.6297C5.19289 11.2985 5.4901 12.1345 5.4901 12.9969C5.4901 13.8592 5.19289 14.6952 4.64854 15.364C4.10418 16.0329 3.34595 16.4936 2.50157 16.6687C1.93581 16.7839 1.42733 17.0912 1.06247 17.5387C0.697616 17.9861 0.498878 18.5461 0.500005 19.1234V23C0.500005 23.663 0.763397 24.2989 1.23224 24.7678C1.70108 25.2366 2.33696 25.5 3 25.5H33C33.663 25.5 34.2989 25.2366 34.7678 24.7678C35.2366 24.2989 35.5 23.663 35.5 23V19.1234C35.4997 18.5472 35.3003 17.9887 34.9356 17.5425C34.5708 17.0964 34.0631 16.7899 33.4984 16.675C32.6541 16.4999 31.8958 16.0391 31.3515 15.3703C30.8071 14.7015 30.5099 13.8655 30.5099 13.0031C30.5099 12.1408 30.8071 11.3048 31.3515 10.636C31.8958 9.96713 32.6541 9.50635 33.4984 9.33125V9.325ZM3 19.125C4.41203 18.8374 5.68127 18.0706 6.59288 16.9546C7.50448 15.8386 8.00243 14.4418 8.00243 13.0008C8.00243 11.5598 7.50448 10.163 6.59288 9.04697C5.68127 7.93094 4.41203 7.16421 3 6.87656V3H11.75V23H3V19.125Z" fill="#0083CB"/>
</svg>
