<svg width="40" height="31" viewBox="0 0 40 31" fill="none" xmlns="http://www.w3.org/2000/svg">
<g clip-path="url(#clip0_1_8)">
<path d="M25.1461 15.5034C25.1461 17.8581 24.6537 19.9552 23.6688 21.7948C22.6839 23.6343 21.2802 25.072 19.4576 26.1079C17.635 27.1437 15.5464 27.6616 13.1917 27.6616C11.505 27.6616 9.89179 27.3333 8.35221 26.6767C6.81262 26.0201 5.48813 25.1371 4.37872 24.0277C3.26932 22.9183 2.38632 21.5938 1.72973 20.0542C1.07315 18.5147 0.744853 16.9015 0.744853 15.2147C0.744853 13.528 1.07315 11.9148 1.72973 10.3752C2.38632 8.83565 3.26932 7.51116 4.37872 6.40175C5.48813 5.29235 6.81262 4.40935 8.35221 3.75276C9.89179 3.09618 11.505 2.76788 13.1917 2.76788C16.4294 2.76788 19.2085 3.85465 21.5292 6.02818L18.1501 9.27149C16.8256 7.99228 15.1728 7.35267 13.1917 7.35267C11.7993 7.35267 10.5116 7.70361 9.3286 8.40548C8.14561 9.10734 7.20884 10.0611 6.51829 11.2667C5.82774 12.4724 5.48247 13.7884 5.48247 15.2147C5.48247 16.6411 5.82774 17.9571 6.51829 19.1627C7.20884 20.3684 8.14561 21.3221 9.3286 22.024C10.5116 22.7259 11.7993 23.0768 13.1917 23.0768C14.1313 23.0768 14.9945 22.9466 15.7813 22.6862C16.568 22.4259 17.2161 22.1004 17.7256 21.7099C18.235 21.3193 18.6793 20.875 19.0585 20.3769C19.4378 19.8788 19.7151 19.409 19.8906 18.9675C20.0661 18.526 20.1878 18.1071 20.2557 17.7109H13.1917V13.4318H24.9424C25.0782 14.145 25.1461 14.8355 25.1461 15.5034ZM39.8684 13.4318V16.9977H36.3194V20.5467H32.7535V16.9977H29.2045V13.4318H32.7535V9.8828H36.3194V13.4318H39.8684Z" fill="white"/>
</g>
<defs>
<clipPath id="clip0_1_8">
<rect width="39.1272" height="30.4294" fill="white" transform="matrix(1 0 0 -1 0.743042 30.4294)"/>
</clipPath>
</defs>
</svg>
