<svg width="27" height="31" viewBox="0 0 27 31" fill="none" xmlns="http://www.w3.org/2000/svg">
<g clip-path="url(#clip0_1_11)">
<path d="M6.83843 10.613V27.4408H1.2348V10.613H6.83843ZM7.19503 5.41687C7.20635 6.24327 6.92051 6.93381 6.3375 7.48852C5.7545 8.04322 4.98754 8.32057 4.03662 8.32057H4.00266C3.07438 8.32057 2.32723 8.04322 1.76121 7.48852C1.19518 6.93381 0.91217 6.24327 0.91217 5.41687C0.91217 4.57916 1.20367 3.88578 1.78668 3.33674C2.36968 2.78769 3.13098 2.51317 4.07058 2.51317C5.01018 2.51317 5.76299 2.78769 6.32901 3.33674C6.89504 3.88578 7.18371 4.57916 7.19503 5.41687ZM26.9945 17.7958V27.4408H21.4079V18.4411C21.4079 17.2524 21.1786 16.3213 20.7202 15.6477C20.2617 14.9742 19.5457 14.6374 18.5721 14.6374C17.8589 14.6374 17.2618 14.8327 16.7806 15.2232C16.2995 15.6138 15.9401 16.0977 15.7024 16.6751C15.5778 17.0147 15.5156 17.4732 15.5156 18.0505V27.4408H9.92892C9.95156 22.924 9.96288 19.2618 9.96288 16.4543C9.96288 13.6469 9.95722 11.9714 9.9459 11.428L9.92892 10.613H15.5156V13.0582H15.4816C15.708 12.6959 15.9401 12.379 16.1778 12.1073C16.4155 11.8356 16.7354 11.5412 17.1372 11.2243C17.5391 10.9073 18.0315 10.6611 18.6145 10.4856C19.1976 10.3101 19.8456 10.2224 20.5588 10.2224C22.4946 10.2224 24.0512 10.8648 25.2285 12.1497C26.4059 13.4346 26.9945 15.3166 26.9945 17.7958Z" fill="white"/>
</g>
<defs>
<clipPath id="clip0_1_11">
<rect width="26.0932" height="30.4294" fill="white" transform="matrix(1 0 0 -1 0.906738 30.4294)"/>
</clipPath>
</defs>
</svg>
