<svg width="138" height="84" viewBox="0 0 138 84" fill="none" xmlns="http://www.w3.org/2000/svg">
<path d="M50.8 37.9C54.2583 37.9 57.1979 36.7042 59.6187 34.3125C62.0396 31.9208 63.25 29.0167 63.25 25.6C63.25 22.1833 62.0396 19.2792 59.6187 16.8875C57.1979 14.4958 54.2583 13.3 50.8 13.3C47.3417 13.3 44.4021 14.4958 41.9813 16.8875C39.5604 19.2792 38.35 22.1833 38.35 25.6C38.35 29.0167 39.5604 31.9208 41.9813 34.3125C44.4021 36.7042 47.3417 37.9 50.8 37.9ZM25.9 66.6C23.6175 66.6 21.6629 65.7964 20.0361 64.1892C18.4093 62.582 17.5972 60.6523 17.6 58.4V9.20001C17.6 6.94501 18.4134 5.01391 20.0402 3.40671C21.667 1.79951 23.6203 0.997274 25.9 1.00001H75.7C77.9825 1.00001 79.9371 1.80361 81.5639 3.41081C83.1907 5.01801 84.0028 6.94774 84 9.20001V58.4C84 60.655 83.1866 62.5861 81.5598 64.1933C79.933 65.8005 77.9797 66.6027 75.7 66.6H25.9ZM9.3 83C7.01751 83 5.06286 82.1964 3.43606 80.5892C1.80926 78.982 0.99724 77.0523 1.00001 74.8V17.4H9.3V74.8H67.4V83H9.3ZM25.9 58.4H75.7C72.795 54.505 69.1458 51.4819 64.7523 49.3308C60.3588 47.1797 55.7081 46.1027 50.8 46.1C45.8892 46.1 41.237 47.1769 36.8436 49.3308C32.4501 51.4847 28.8022 54.5077 25.9 58.4Z" fill="#0083CB" stroke="#0083CB" stroke-width="1.99617"/>
<path d="M137.695 37.9313H121.131V21.9619H112.849V37.9313H96.2852V45.916H112.849V61.8854H121.131V45.916H137.695V37.9313Z" fill="#0083CB"/>
</svg>
