<svg width="40" height="40" viewBox="0 0 40 40" fill="none" xmlns="http://www.w3.org/2000/svg">
<g clip-path="url(#clip0_125_281)">
<path d="M19.9999 2.5C16.3544 2.50414 12.8595 3.95412 10.2817 6.53185C7.704 9.10958 6.25401 12.6045 6.24988 16.25C6.24988 28.0156 18.7499 36.9016 19.2827 37.2734C19.4929 37.4207 19.7433 37.4996 19.9999 37.4996C20.2565 37.4996 20.5069 37.4207 20.7171 37.2734C21.2499 36.9016 33.7499 28.0156 33.7499 16.25C33.7457 12.6045 32.2958 9.10958 29.718 6.53185C27.1403 3.95412 23.6453 2.50414 19.9999 2.5ZM19.9999 11.25C20.9888 11.25 21.9555 11.5432 22.7777 12.0927C23.6 12.6421 24.2408 13.423 24.6193 14.3366C24.9977 15.2502 25.0967 16.2555 24.9038 17.2255C24.7109 18.1954 24.2347 19.0863 23.5354 19.7855C22.8361 20.4848 21.9452 20.961 20.9753 21.1539C20.0054 21.3469 19.0001 21.2478 18.0865 20.8694C17.1728 20.491 16.3919 19.8501 15.8425 19.0279C15.2931 18.2056 14.9999 17.2389 14.9999 16.25C14.9999 14.9239 15.5267 13.6521 16.4643 12.7145C17.402 11.7768 18.6738 11.25 19.9999 11.25Z" fill="#0083CB"/>
</g>
<defs>
<clipPath id="clip0_125_281">
<rect width="40" height="40" fill="white"/>
</clipPath>
</defs>
</svg>
