<svg width="29" height="31" viewBox="0 0 29 31" fill="none" xmlns="http://www.w3.org/2000/svg">
<g clip-path="url(#clip0_1_5)">
<path d="M27.2031 6.92816C26.4447 8.03756 25.5277 8.98282 24.4523 9.76393C24.4636 9.92242 24.4692 10.1601 24.4692 10.4771C24.4692 11.9488 24.2542 13.4176 23.824 14.8836C23.3938 16.3496 22.74 17.7562 21.8627 19.1033C20.9854 20.4505 19.9411 21.6419 18.7298 22.6778C17.5185 23.7136 16.0581 24.54 14.3487 25.1569C12.6394 25.7739 10.8111 26.0824 8.86398 26.0824C5.79613 26.0824 2.98866 25.2617 0.441551 23.6202C0.837768 23.6655 1.27927 23.6881 1.76605 23.6881C4.31315 23.6881 6.5829 22.907 8.57531 21.3448C7.38666 21.3221 6.32253 20.957 5.38293 20.2495C4.44334 19.542 3.79807 18.6392 3.44713 17.5411C3.82071 17.5977 4.16598 17.626 4.48296 17.626C4.96974 17.626 5.45086 17.5637 5.92632 17.4392C4.65842 17.1788 3.60845 16.5477 2.7764 15.5459C1.94434 14.544 1.52832 13.3808 1.52832 12.0563V11.9884C2.29811 12.4186 3.1245 12.6507 4.0075 12.6846C3.26035 12.1865 2.66602 11.5356 2.22452 10.7318C1.78303 9.92808 1.56228 9.0564 1.56228 8.11681C1.56228 7.1206 1.81133 6.19799 2.30943 5.34895C3.6792 7.0357 5.34614 8.38567 7.31024 9.39885C9.27434 10.412 11.3771 10.9752 13.6186 11.0884C13.528 10.6582 13.4827 10.2394 13.4827 9.83186C13.4827 8.31491 14.0176 7.02155 15.0874 5.95177C16.1572 4.88198 17.4506 4.34709 18.9675 4.34709C20.5524 4.34709 21.8882 4.92443 22.9749 6.07912C24.2089 5.84139 25.3692 5.39989 26.456 4.75463C26.0371 6.05648 25.2334 7.064 24.0447 7.77719C25.0975 7.66399 26.1503 7.38098 27.2031 6.92816Z" fill="white"/>
</g>
<defs>
<clipPath id="clip0_1_5">
<rect width="28.274" height="30.4294" fill="white" transform="matrix(1 0 0 -1 0.432495 30.4294)"/>
</clipPath>
</defs>
</svg>
